<?xml version="1.0" encoding="UTF-8" standalone="no"?>
<svg width="264px" height="186px" viewBox="0 0 264 186" version="1.1" xmlns="http://www.w3.org/2000/svg" xmlns:xlink="http://www.w3.org/1999/xlink" xmlns:sketch="http://www.bohemiancoding.com/sketch/ns">
    <!-- Generator: Sketch 3.2.2 (9983) - http://www.bohemiancoding.com/sketch -->
    <title>Logo</title>
    <desc>Created with Sketch.</desc>
    <defs></defs>
    <g id="Page-2" stroke="none" stroke-width="1" fill="none" fill-rule="evenodd" sketch:type="MSPage">
        <g id="Logo" sketch:type="MSLayerGroup">
            <g id="Rectangle-1-+-Rectangle-2-+-Rectangle-3-+-g832" sketch:type="MSShapeGroup">
                <g id="Rectangle-1-+-Rectangle-2-+-Rectangle-3" fill="#181818">
                    <g>
                        <path d="M0,35.0038069 C0,30.5834264 3.57499022,27 7.99593806,27 L192.405422,27 L255.2836,27 C259.703248,27 263.286081,30.5806491 263.286081,35.0038069 L263.286081,177.112666 C263.286081,181.533047 259.713993,185.116473 255.280728,185.116473 L8.00535319,185.116473 C3.58411871,185.116473 0,181.535824 0,177.112666 L0,35.0038069 Z" id="Rectangle-1"></path>
                        <g id="Rectangle-2-+-Rectangle-3" transform="translate(94.000000, 0.000000)">
                            <path d="M0,13.5617586 C0,6.07180616 6.07457692,0 13.5617326,0 L62.2342409,0 C69.724179,0 75.7959735,6.07015933 75.7959735,13.5617586 L75.7959735,27.1235173 L0,27.1235173 L0,13.5617586 Z M9,17 C9,11.4771525 13.4828188,7 18.9999611,7 L57.364093,7 C62.886919,7 67.3640541,11.4759382 67.3640541,17 L67.3640541,27 L9,27 L9,17 Z" id="Rectangle-2"></path>
                        </g>
                    </g>
                </g>
                <g id="g832" transform="translate(58.000000, 51.000000)" fill="#FFFFFF">
                    <path d="M46.6660349,69.7251638 C39.9978605,71.4903848 36.4415581,76.3444224 31.1075349,80.3164901 L21.7723488,86.0533517 L10.6590116,92.6726104 C7.99156977,93.9966329 7.54713953,93.5554344 5.76898837,93.9966329 C3.10197674,94.8790299 -0.454325581,97.527075 0.434534884,100.615892 C0.879395349,104.146334 3.99083721,103.263937 5.76898837,104.587532 C7.1027093,105.470356 7.1027093,107.235577 7.99156977,108.5596 C8.88086047,109.883195 11.1034419,110.324821 12.881593,110.766019 C19.104907,111.207218 18.6604767,106.794379 20.8830581,102.822738 L23.5505,98.409472 C25.7730814,94.8790299 28.440093,93.5554344 31.5519651,90.9073893 L35.9971279,86.4945502 L47.1104651,77.668445 C48.444186,76.3444224 52.4449186,72.8144074 50.6667674,70.6075608 C50.2223372,70.1663623 49.3330465,69.7251638 48.444186,69.7251638 L46.6660349,69.7251638 L46.6660349,69.7251638 Z M26.2175116,90.4661908 C24.8837907,93.5554344 18.6604767,97.9682735 16.4378953,101.498716 C15.5486047,102.822738 15.1041744,105.470356 12.881593,105.029158 C11.5478721,104.587532 7.1027093,100.615892 8.43643023,98.409472 C9.76972093,96.2030525 12.4371628,98.8506705 14.6597442,98.409472 C17.7716163,97.527075 22.2167791,92.2314119 26.2175116,90.4661908 L26.2175116,90.4661908 Z" id="selection_to_path#6"></path>
                    <path d="M102.232291,65.3123247 L99.5652791,66.1947217 C98.2315581,66.6359202 96.0089767,66.6359202 96.0089767,68.8423397 C96.0089767,71.0491864 101.78786,75.0208269 103.566012,76.3444224 L116.90193,87.8185728 C120.458233,90.4661908 124.014535,92.6726104 127.125977,95.761854 C131.126709,99.7334946 128.459698,101.498716 134.238581,106.794379 C135.572302,108.117974 137.350453,109.441997 139.128174,109.000798 C143.573767,108.5596 142.684477,103.263937 143.129337,102.381113 C144.018198,101.057517 145.351919,100.174693 146.240779,98.8506705 C148.01893,96.644251 148.46336,91.3485878 146.685209,89.1421683 C145.796349,88.2597713 144.018198,88.2597713 142.684477,87.8185728 C139.128174,86.9357487 139.128174,86.9357487 136.016733,85.6117262 L126.237116,80.7576886 L121.347093,77.2272465 L112.456337,72.3727818 C110.233756,70.6075608 108.900465,69.7251638 106.677453,67.9599427 C104.899302,66.6359202 104.454872,65.3123247 102.232291,65.3123247 L102.232291,65.3123247 Z M139.573035,93.1138088 C139.573035,94.8790299 138.683744,98.409472 136.905593,99.2922961 C135.127442,99.7334946 133.794151,97.9682735 132.90486,97.0854494 C130.237849,94.4378314 127.570407,93.1138088 127.125977,89.1421683 C131.126709,89.5833667 131.57114,92.2314119 134.238581,93.5554344 C135.127442,93.9966329 138.239314,93.1138088 139.573035,93.1138088 L139.573035,93.1138088 Z" id="selection_to_path#5"></path>
                    <path d="M77.3377442,79.433666 C74.6703023,79.8748645 75.9029186,81.7088493 74.5691977,82.1504749 C73.6790465,82.2183845 73.5973023,81.0536717 72.3633953,80.7910027 C71.1303488,80.5432824 71.2529651,82.0142287 70.226,82.0142287 C69.2175349,81.7088493 68.4465581,78.8327306 67.5585581,78.6943489 C66.4550116,78.6012402 65.8316047,81.1331131 64.8915465,81.1988871 C63.8994302,81.2676508 63.6266628,78.3808545 62.7373721,78.3808545 C61.4040814,77.939656 59.9335465,79.9094599 58.5998256,78.5854374 C57.2661047,76.8202163 57.7793721,71.9315833 55.5563605,71.4903848 C54.2230698,71.4903848 53.7786395,73.6968044 53.3337791,74.5796285 C52.8893488,77.668445 52.0004884,82.5229096 54.2230698,85.1705277 C56.0012209,87.8185728 58.2238023,87.8185728 60.4463837,88.7009698 C63.1133953,90.0249923 64.002686,92.2314119 67.5589884,92.6726104 C74.2267326,94.4378314 76.8941744,93.1138088 82.6730581,90.9073893 C84.8956395,90.0249923 87.5626512,88.7009698 88.8963721,86.9357487 C90.230093,85.1705277 90.230093,82.5229096 90.230093,80.3164901 L90.230093,75.0208269 L90.6745233,71.9315833 C91.2222093,70.3359226 89.6148605,69.9959478 88.4519419,71.4903848 C87.1182209,73.2556059 88.0075116,77.2272465 86.2293605,78.5512691 C84.8956395,78.9924675 84.0063488,77.668445 82.6730581,78.1096435 C81.3393372,78.9924675 81.5454186,81.8416787 79.9733488,81.7088493 C78.8775465,82.1850703 78.4331163,79.433666 77.3377442,79.433666 L77.3377442,79.433666 Z" id="selection_to_path#4"></path>
                    <path d="M74.2267326,57.3686164 C76.8941744,56.9274179 76.8941744,58.692639 77.3386047,60.8990585 C77.3386047,62.2230811 77.7830349,62.6642796 77.7830349,63.9883021 C77.7830349,64.8706991 77.7830349,66.6359202 76.8941744,67.0775458 C76.0048837,67.5187443 75.1160233,67.0775458 74.2267326,67.0775458 C73.3378721,67.0775458 72.0041512,67.0775458 71.5597209,66.6359202 C70.6704302,66.1947217 70.6704302,64.8706991 70.6704302,63.9883021 C70.6704302,61.3406841 71.5597209,58.692639 74.2267326,57.3686164 L74.2267326,57.3686164 Z M61.7801047,43.6884736 C66.6696977,43.2472751 69.7815698,46.7777172 69.3371395,51.6317548 C68.4478488,56.4862195 64.002686,60.8990585 59.1126628,60.0166616 C56.0012209,59.5754631 54.6675,56.4862195 54.2230698,53.8386014 C53.7786395,48.9841368 57.3345116,45.4536947 61.7801047,43.6884736 L61.7801047,43.6884736 Z M83.1174884,42.8060766 C87.1182209,43.2472751 92.4526744,45.8948931 92.4526744,50.3081593 C92.4526744,53.8386014 92.0082442,59.1338375 87.1182209,59.1338375 C85.7845,59.1338375 84.4512093,57.810242 83.1174884,57.3686164 C81.3393372,56.045021 79.1167558,54.2797999 78.2274651,52.0733804 C76.449314,48.1013127 79.1167558,43.6884736 83.1174884,42.8060766 L83.1174884,42.8060766 Z M46.2216047,47.2189157 C47.1104651,48.9841368 47.5548953,51.1905563 47.5548953,52.9557774 C47.1104651,55.1621969 44.8878837,57.810242 44.4434535,59.1338375 C43.5541628,61.3406841 44.8878837,66.6359202 47.1104651,67.9599427 C50.6667674,69.7251638 54.2230698,66.6359202 57.3345116,68.4011412 C60.890814,70.1663623 58.6682326,75.0208269 63.1133953,72.8144074 C63.1133953,72.8144074 64.6514767,71.4557894 65.336407,71.9315833 C66.2252674,73.6968044 67.0035581,75.1489582 67.6316977,75.0596934 C68.2602674,74.9704287 68.738686,73.3393183 69.8499767,73.5601311 C70.7392674,73.5601311 71.5597209,76.0736384 72.4485814,76.0736384 C73.7823023,76.5148369 74.5343488,73.93342 75.4236395,73.93342 C76.3125,73.4922215 76.9625814,75.8699098 77.8514419,75.4282842 C78.7407326,75.4282842 79.1167558,74.1380029 80.0056163,73.6968044 C80.894907,73.2556059 82.0578256,74.6483922 82.946686,73.7655681 C83.8359767,73.3243696 83.5619186,71.0491864 84.4512093,69.7251638 C85.3400698,68.4011412 88.4519419,65.3123247 89.7852326,64.4295006 C93.7863953,62.2230811 99.1204186,65.3123247 100.89857,61.3406841 C103.566012,56.045021 99.5652791,55.6033954 97.7871279,51.6317548 C96.8978372,49.4253352 97.3422674,43.6884736 97.7871279,41.4820541 L98.6759884,41.4820541 C100.009709,46.3365187 96.8978372,48.9841368 100.45414,50.7493578 C101.78786,47.2189157 100.45414,46.7777172 100.89857,43.6884736 L101.34343,39.2756345 C101.34343,37.069215 99.1204186,28.6843082 97.3422674,26.9190872 C96.8978372,26.0366902 95.5645465,25.5954917 94.6752558,25.1538661 C93.7863953,23.8302706 92.8971047,22.9474466 91.5633837,22.0650496 C90.230093,21.1822255 87.1182209,20.741027 85.7845,19.8586301 C80.4504767,18.0932382 74.2267326,17.2106276 68.4478488,17.6519115 L64.4471163,18.5345221 C60.890814,18.975806 56.4456512,19.8586301 53.3337791,22.0650496 C49.3330465,24.2714691 44.8878837,29.1255067 43.998593,33.5387729 L42.6653023,42.364451 C42.2204419,45.0124962 40.4422907,50.7493578 43.1097326,52.5145789 C46.2216047,54.7209984 46.2216047,48.5429383 46.2216047,47.2189157 L46.2216047,47.2189157 Z" id="selection_to_path#3"></path>
                    <path d="M13.7704535,2.64778887 C10.6590116,3.9716833 11.9927326,5.73686164 11.1034419,8.38465051 C10.2145814,10.5911555 7.99156977,10.5911555 7.54713953,12.7976604 C7.1027093,15.4454493 10.2145814,17.2106276 11.9927326,18.0932382 C16.4378953,20.2998285 23.5505,21.1822255 28.8845233,24.2714691 L36.8864186,29.5671323 C37.7752791,30.0083308 39.109,31.3323533 40.4422907,30.8907278 C43.1097326,30.4495293 44.4434535,24.7126676 42.6653023,22.5062481 L36.8864186,18.975806 L29.773814,13.6802282 C27.5512326,11.9150499 24.8837907,10.5911555 22.6612093,8.38465051 C19.9941977,5.73686164 18.2160465,1.76517834 13.7704535,2.64778887 L13.7704535,2.64778887 Z" id="selection_to_path#2"></path>
                    <path d="M128.459698,0.441283908 C124.903395,1.76517834 124.014535,5.29557774 122.236384,8.38465051 C120.458233,11.0324394 116.01264,17.2106276 113.790058,19.4170045 C111.567477,21.623424 104.454872,26.9190872 103.566012,28.6843082 C102.232291,30.4495293 103.566012,35.3039939 106.233023,34.8623683 C108.011174,34.4211699 111.567477,30.8907278 113.345628,30.0083308 C117.34636,27.3602856 125.792256,22.0650496 130.237849,20.741027 C133.349291,19.8586301 138.683744,20.2998285 140.461895,17.2106276 C143.129337,12.7976604 138.239314,11.0324394 136.905593,9.26726104 C134.683012,6.61947217 136.461163,0.441283908 130.682279,0 C129.793419,0 129.348558,0 128.459698,0.441283908 L128.459698,0.441283908 Z" id="selection_to_path#1"></path>
                </g>
            </g>
        </g>
    </g>
</svg>